<?xml version="1.0" encoding="utf-8"?>
<!-- Generator: Adobe Illustrator 19.0.0, SVG Export Plug-In . SVG Version: 6.00 Build 0)  -->
<svg version="1.1" id="Layer_1" xmlns="http://www.w3.org/2000/svg" xmlns:xlink="http://www.w3.org/1999/xlink" x="0px" y="0px"
	 viewBox="0 0 200 150" style="enable-background:new 0 0 200 150;" xml:space="preserve">
<style type="text/css">
	.st0{fill:#26B605;}
</style>
<path id="XMLID_7_" class="st0" d="M99.7,11.1c-35.5,0-64.3,28.8-64.3,64.3s28.8,64.3,64.3,64.3S164,110.8,164,75.4
	S135.2,11.1,99.7,11.1z M99.7,137c-34,0-61.7-27.6-61.7-61.7s27.6-61.7,61.7-61.7s61.7,27.6,61.7,61.7S133.8,137,99.7,137z"/>
<path id="XMLID_4_" class="st0" d="M133.2,40.5c-1.9-1.1-4.4-0.4-5.5,1.5l-33.8,58.7L70.2,81.4c-1.9-1.1-4.4-0.4-5.5,1.5
	s-0.4,4.4,1.5,5.5l25.9,21.1c0.3,0.3,0.5,0.5,0.9,0.7c1.9,1.1,4.4,0.4,5.5-1.5L134.7,46C135.8,44.1,135.1,41.6,133.2,40.5z"/>
</svg>
